<svg width="64" height="64" viewBox="0 0 64 64" fill="none" xmlns="http://www.w3.org/2000/svg">
<path d="M42.2531 32.002L60 10H43.4616C40.9411 10 38.5939 11.1164 37.021 13.0662L31.998 19.291L26.979 13.0662C25.4061 11.1164 23.0589 10 20.5364 10H4L17.9064 27.2395C19.4733 29.1834 21.8166 30.2959 24.333 30.2959C26.8495 30.2959 29.1889 29.1834 30.7557 27.2395L40.1846 15.5526C40.9829 14.562 42.1775 13.9939 43.4616 13.9939H51.6064L38.0842 30.7558L23.8134 48.4474C23.0151 49.438 21.8166 50.0061 20.5344 50.0061H12.3896L25.3325 33.9616H20.1641L4 54H20.5364C23.0589 54 25.4061 52.8836 26.979 50.9358L31.998 44.711L37.0151 50.9299C38.5859 52.8777 40.9332 53.9941 43.4556 53.9941H43.4735L59.9642 53.9587L42.2511 32.002H42.2531ZM27.5921 24.7512C26.7978 25.7379 25.6092 26.3039 24.333 26.3039C23.0569 26.3039 21.8643 25.7379 21.07 24.7512L12.3916 13.9939H20.5364C21.8205 13.9939 23.0131 14.562 23.8154 15.5526L29.4138 22.4948L27.5941 24.7512H27.5921ZM43.4656 50.0002C42.1874 50.0002 40.9809 49.4341 40.1786 48.4415L34.5842 41.5052L39.665 35.2058L51.5865 49.9845L43.4656 50.0021V50.0002Z" fill="url(#paint0_linear_10728_4051)"/>
<path d="M26.976 13.0664L23.8125 15.5528L29.4089 22.495L31.9951 19.2912L26.976 13.0664Z" fill="url(#paint1_linear_10728_4051)"/>
<path d="M34.5862 41.5078L32 44.7116L37.0171 50.9305L40.1826 48.4421L34.5862 41.5078Z" fill="url(#paint2_linear_10728_4051)"/>
<defs>
<linearGradient id="paint0_linear_10728_4051" x1="4.15728" y1="32" x2="55.6061" y2="32" gradientUnits="userSpaceOnUse">
<stop stop-color="#68E1C2"/>
<stop offset="0.21" stop-color="#5EDABB"/>
<stop offset="0.56" stop-color="#46C8AA"/>
<stop offset="0.99" stop-color="#1DAC8E"/>
<stop offset="1" stop-color="#1DAC8E"/>
</linearGradient>
<linearGradient id="paint1_linear_10728_4051" x1="25.6182" y1="14.6624" x2="30.5405" y2="20.7781" gradientUnits="userSpaceOnUse">
<stop stop-color="#00684D" stop-opacity="0"/>
<stop offset="0.27" stop-color="#00684D" stop-opacity="0.31"/>
<stop offset="0.76" stop-color="#00684D" stop-opacity="0.81"/>
<stop offset="1" stop-color="#00684D"/>
</linearGradient>
<linearGradient id="paint2_linear_10728_4051" x1="37.913" y1="49.3424" x2="33.7758" y2="42.9" gradientUnits="userSpaceOnUse">
<stop stop-color="#00684D" stop-opacity="0"/>
<stop offset="0.27" stop-color="#00684D" stop-opacity="0.31"/>
<stop offset="0.76" stop-color="#00684D" stop-opacity="0.81"/>
<stop offset="1" stop-color="#00684D"/>
</linearGradient>
</defs>
</svg>
